<?xml version="1.0" encoding="UTF-8"?>
<svg width="204px" height="46px" viewBox="0 0 204 46" version="1.1" xmlns="http://www.w3.org/2000/svg" xmlns:xlink="http://www.w3.org/1999/xlink">
    <!-- Generator: Sketch 49 (51002) - http://www.bohemiancoding.com/sketch -->
    <title>Logo/h</title>
    <desc>Created with Sketch.</desc>
    <defs>
        <linearGradient x1="100%" y1="100%" x2="0%" y2="0%" id="linearGradient-1">
            <stop stop-color="#003AAD" offset="0%"></stop>
            <stop stop-color="#6442FE" offset="100%"></stop>
        </linearGradient>
    </defs>
    <g id="UI-Kit" stroke="none" stroke-width="1" fill="none" fill-rule="evenodd">
        <g id="Illustrations" transform="translate(-167.000000, -248.000000)">
            <g id="Logo/h" transform="translate(167.000000, 248.000000)">
                <path d="M26.5213033,32.0100251 L26.5213033,23.6168198 C23.5876729,20.5708716 17.5522139,21.5377332 13.6892231,18.3224728 L13.6892231,25.5408531 C10.0688835,24.3945632 7.34041159,23.0187968 5.5037594,21.4135338 C2.93733053,19.1879588 1.65413534,16.3508944 1.65413534,12.9022556 C1.65413534,10.6365802 2.31077038,8.49625068 3.62406015,6.48120301 C4.93734992,4.46615534 6.91226752,2.88221128 9.54887218,1.72932331 C12.1854768,0.576435338 15.7994758,0 20.3909774,0 C26.0250908,0 30.3207872,1.04760857 33.2781955,3.14285714 C36.2356038,5.23810571 37.9949847,8.57140571 38.556391,13.1428571 L26.5213033,14.0451128 C26.1804494,12.0601405 24.6566471,10.4661699 23.5639098,9.56390977 C22.4711725,8.66164962 20.9624156,8.21052632 19.037594,8.21052632 C14.5034809,8.21052632 13.6892231,10.5162859 13.6892231,11.4786967 C13.6892231,12.1804546 14.5864629,13.0025035 15.2481203,13.5639098 C15.8897275,14.1453663 17.4135218,14.6867143 19.8195489,15.1879699 C25.7744659,16.4711844 30.0400874,17.769417 32.6165414,19.0827068 C35.1929953,20.3959965 37.0676633,22.0250529 38.2406015,23.9699248 C39.4135397,25.9147967 40,28.0902135 40,30.4962406 C40,33.3233224 39.2180529,35.9298126 37.6541353,38.3157895 C36.0902177,40.7017663 33.9047759,42.511272 31.0977444,43.7443609 C28.2907128,44.9774498 24.7519011,45.593985 20.481203,45.593985 C12.9824186,45.593985 7.78948812,44.1503904 4.90225564,41.2631579 C2.01502316,38.3759254 0.380954286,34.7067892 0,30.2556391 L13.817878,29.443609 C14.0985812,31.5488827 15.2848789,36.9323308 20.6917293,36.9323308 C22.6366012,36.9323308 24.1353331,36.476195 25.1879699,35.5639098 C26.2406068,34.6516245 26.5213033,33.2130386 26.5213033,32.0100251 Z" id="Combined-Shape" fill="url(#linearGradient-1)"></path>
                <path d="M63.56,29.56 L63.56,31 L56.96,31 L56.96,29.56 L59,29.08 L59,16.12 L56.96,15.64 L56.96,14.32 L63.56,14.2 L63.56,15.64 L61.52,16.12 L61.52,29.08 L63.56,29.56 Z M69.44,18.28 L69.656,19.984 C69.8160008,19.8559994 70.0399986,19.6800011 70.328,19.456 C70.6160014,19.2319989 70.955998,19.016001 71.348,18.808 C71.740002,18.599999 72.1719976,18.4200008 72.644,18.268 C73.1160024,18.1159992 73.6079974,18.04 74.12,18.04 C75.4160065,18.04 76.3799968,18.4199962 77.012,19.18 C77.6440032,19.9400038 77.96,20.9999932 77.96,22.36 L77.96,29.08 L79.76,29.68 L79.76,31 L74,31 L74,29.68 L75.56,29.08 L75.56,22.6 C75.56,21.7359957 75.3920017,21.100002 75.056,20.692 C74.7199983,20.283998 74.2080034,20.08 73.52,20.08 C73.1839983,20.08 72.8520016,20.1239996 72.524,20.212 C72.1959984,20.3000004 71.8920014,20.4159993 71.612,20.56 C71.3319986,20.7040007 71.0840011,20.8599992 70.868,21.028 C70.6519989,21.1960008 70.4720007,21.3599992 70.328,21.52 L69.92,22 L69.92,29.08 L71.48,29.68 L71.48,31 L65.48,31 L65.48,29.68 L67.52,29.08 L67.52,20.2 L65.48,19.72 L65.48,18.4 L69.44,18.28 Z M86,18.28 L86,19.72 L84.32,19.96 L87.176,28.84 L90.056,20.08 L88.4,19.72 L88.4,18.4 L93.776,18.28 L93.776,19.72 L92.456,19.96 L88.376,31 L85.736,31 L81.8,20.08 L80.6,19.72 L80.6,18.4 L86,18.28 Z M105.656,24.952 L97.376,25 C97.376,26.3120066 97.6919968,27.3599961 98.324,28.144 C98.9560032,28.9280039 99.7999947,29.32 100.856,29.32 C101.208002,29.32 101.559998,29.2880003 101.912,29.224 C102.264002,29.1599997 102.595998,29.0800005 102.908,28.984 C103.220002,28.8879995 103.503999,28.7800006 103.76,28.66 C104.016001,28.5399994 104.231999,28.4240006 104.408,28.312 L104.888,28 L105.728,29.248 C105.183997,29.6800022 104.684002,30.0199988 104.228,30.268 C103.771998,30.5160012 103.236003,30.739999 102.62,30.94 C102.003997,31.140001 101.336004,31.24 100.616,31.24 C98.7279906,31.24 97.2960049,30.6680057 96.32,29.524 C95.3439951,28.3799943 94.856,26.8160099 94.856,24.832 C94.856,23.839995 94.9999986,22.9280042 95.288,22.096 C95.5760014,21.2639958 95.9799974,20.548003 96.5,19.948 C97.0200026,19.347997 97.6399964,18.8800017 98.36,18.544 C99.0800036,18.2079983 99.8719957,18.04 100.736,18.04 C104.096017,18.04 105.776,19.9199812 105.776,23.68 L105.656,24.952 Z M97.472,23.2 L103.232,23.2 C103.232,22.2239951 103.024002,21.432003 102.608,20.824 C102.191998,20.215997 101.520005,19.912 100.592,19.912 C99.6799954,19.912 98.9520027,20.2199969 98.408,20.836 C97.8639973,21.4520031 97.5520004,22.2399952 97.472,23.2 Z M111.536,18.28 L111.752,19.984 C111.912001,19.8559994 112.135999,19.6800011 112.424,19.456 C112.712001,19.2319989 113.051998,19.016001 113.444,18.808 C113.836002,18.599999 114.267998,18.4200008 114.74,18.268 C115.212002,18.1159992 115.703997,18.04 116.216,18.04 C117.512006,18.04 118.475997,18.4199962 119.108,19.18 C119.740003,19.9400038 120.056,20.9999932 120.056,22.36 L120.056,29.08 L121.856,29.68 L121.856,31 L116.096,31 L116.096,29.68 L117.656,29.08 L117.656,22.6 C117.656,21.7359957 117.488002,21.100002 117.152,20.692 C116.815998,20.283998 116.304003,20.08 115.616,20.08 C115.279998,20.08 114.948002,20.1239996 114.62,20.212 C114.291998,20.3000004 113.988001,20.4159993 113.708,20.56 C113.427999,20.7040007 113.180001,20.8599992 112.964,21.028 C112.747999,21.1960008 112.568001,21.3599992 112.424,21.52 L112.016,22 L112.016,29.08 L113.576,29.68 L113.576,31 L107.576,31 L107.576,29.68 L109.616,29.08 L109.616,20.2 L107.576,19.72 L107.576,18.4 L111.536,18.28 Z M127.856,14.896 L127.856,18.4 L131.336,18.4 L131.336,20.2 L127.856,20.2 L127.856,27.904 C127.856,28.8800049 128.255996,29.368 129.056,29.368 C129.568003,29.368 130.191996,29.168002 130.928,28.768 L131.576,30.04 C130.487995,30.840004 129.368006,31.24 128.216,31.24 C127.399996,31.24 126.736003,30.9720027 126.224,30.436 C125.711997,29.8999973 125.456,29.0080062 125.456,27.76 L125.456,20.2 L123.056,20.2 L123.056,18.64 L125.456,18.4 L125.456,15.376 L127.856,14.896 Z M133.016,24.832 C133.016,23.8079949 133.163999,22.8760042 133.46,22.036 C133.756001,21.1959958 134.175997,20.480003 134.72,19.888 C135.264003,19.295997 135.907996,18.8400016 136.652,18.52 C137.396004,18.1999984 138.215996,18.04 139.112,18.04 C140.904009,18.04 142.295995,18.6079943 143.288,19.744 C144.280005,20.8800057 144.776,22.4559899 144.776,24.472 C144.776,25.464005 144.632001,26.3719959 144.344,27.196 C144.055999,28.0200041 143.652003,28.731997 143.132,29.332 C142.611997,29.932003 141.980004,30.3999983 141.236,30.736 C140.491996,31.0720017 139.664005,31.24 138.752,31.24 C136.927991,31.24 135.516005,30.6960054 134.516,29.608 C133.515995,28.5199946 133.016,26.9280105 133.016,24.832 Z M139.016,19.96 C136.695988,19.96 135.536,21.5199844 135.536,24.64 C135.536,27.7600156 136.655989,29.32 138.896,29.32 C140.064006,29.32 140.915997,28.920004 141.452,28.12 C141.988003,27.319996 142.256,26.120008 142.256,24.52 C142.256,21.4799848 141.176011,19.96 139.016,19.96 Z M150.656,18.28 L150.872,20.032 C152.056006,18.7039934 153.263994,18.04 154.496,18.04 C155.152003,18.04 155.783997,18.135999 156.392,18.328 L156.656,18.4 L156.536,21.88 L154.976,21.88 L154.616,20.08 C153.239993,20.08 152.080005,20.7039938 151.136,21.952 L151.136,29.08 L153.536,29.68 L153.536,31 L146.696,31 L146.696,29.68 L148.736,29.08 L148.736,20.2 L146.696,19.72 L146.696,18.4 L150.656,18.28 Z M160.496,26.08 L160.976,28.6 C161.264001,28.7600008 161.655998,28.8999994 162.152,29.02 C162.648002,29.1400006 163.135998,29.2 163.616,29.2 C164.096002,29.2 164.559998,29.1400006 165.008,29.02 C165.456002,28.8999994 165.847998,28.7280011 166.184,28.504 C166.520002,28.2799989 166.787999,28.0120016 166.988,27.7 C167.188001,27.3879984 167.288,27.032002 167.288,26.632 C167.288,26.1679977 167.160001,25.7800016 166.904,25.468 C166.647999,25.1559984 166.316002,24.8840012 165.908,24.652 C165.499998,24.4199988 165.040003,24.2160009 164.528,24.04 C164.015997,23.8639991 163.496003,23.680001 162.968,23.488 C162.407997,23.2479988 161.868003,23.0040012 161.348,22.756 C160.827997,22.5079988 160.364002,22.2040018 159.956,21.844 C159.547998,21.4839982 159.224001,21.0480026 158.984,20.536 C158.743999,20.0239974 158.624,19.3920038 158.624,18.64 C158.624,17.839996 158.779998,17.144003 159.092,16.552 C159.404002,15.959997 159.819997,15.4720019 160.34,15.088 C160.860003,14.7039981 161.467997,14.4200009 162.164,14.236 C162.860003,14.0519991 163.591996,13.96 164.36,13.96 C164.712002,13.96 165.087998,13.9839998 165.488,14.032 C165.888002,14.0800002 166.279998,14.1399996 166.664,14.212 C167.048002,14.2840004 167.407998,14.3639996 167.744,14.452 C168.080002,14.5400004 168.367999,14.6159997 168.608,14.68 L169.376,14.92 L169.256,19 L167.696,19 L166.88,16.432 C166.431998,16.2879993 165.988002,16.1840003 165.548,16.12 C165.107998,16.0559997 164.656002,16.024 164.192,16.024 C163.727998,16.024 163.308002,16.0839994 162.932,16.204 C162.555998,16.3240006 162.236001,16.487999 161.972,16.696 C161.707999,16.904001 161.504001,17.1359987 161.36,17.392 C161.215999,17.6480013 161.144,17.9119986 161.144,18.184 C161.16,18.8560034 161.383998,19.3839981 161.816,19.768 C162.248002,20.1520019 162.783997,20.4799986 163.424,20.752 C164.064003,21.0240014 164.755996,21.2799988 165.5,21.52 C166.244004,21.7600012 166.931997,22.0599982 167.564,22.42 C168.196003,22.7800018 168.723998,23.2479971 169.148,23.824 C169.572002,24.4000029 169.784,25.1519954 169.784,26.08 C169.784,26.9120042 169.624002,27.6479968 169.304,28.288 C168.983998,28.9280032 168.544003,29.4679978 167.984,29.908 C167.423997,30.3480022 166.760004,30.6839988 165.992,30.916 C165.223996,31.1480012 164.400004,31.264 163.52,31.264 C163.167998,31.264 162.788002,31.2400002 162.38,31.192 C161.971998,31.1439998 161.572002,31.0840004 161.18,31.012 C160.787998,30.9399996 160.424002,30.8600004 160.088,30.772 C159.751998,30.6839996 159.472001,30.6000004 159.248,30.52 L158.576,30.28 L158.576,26.08 L160.496,26.08 Z M172.208,24.832 C172.208,23.8079949 172.355999,22.8760042 172.652,22.036 C172.948001,21.1959958 173.367997,20.480003 173.912,19.888 C174.456003,19.295997 175.099996,18.8400016 175.844,18.52 C176.588004,18.1999984 177.407996,18.04 178.304,18.04 C180.096009,18.04 181.487995,18.6079943 182.48,19.744 C183.472005,20.8800057 183.968,22.4559899 183.968,24.472 C183.968,25.464005 183.824001,26.3719959 183.536,27.196 C183.247999,28.0200041 182.844003,28.731997 182.324,29.332 C181.803997,29.932003 181.172004,30.3999983 180.428,30.736 C179.683996,31.0720017 178.856005,31.24 177.944,31.24 C176.119991,31.24 174.708005,30.6960054 173.708,29.608 C172.707995,28.5199946 172.208,26.9280105 172.208,24.832 Z M178.208,19.96 C175.887988,19.96 174.728,21.5199844 174.728,24.64 C174.728,27.7600156 175.847989,29.32 178.088,29.32 C179.256006,29.32 180.107997,28.920004 180.644,28.12 C181.180003,27.319996 181.448,26.120008 181.448,24.52 C181.448,21.4799848 180.368011,19.96 178.208,19.96 Z M186.608,18.64 L188.768,18.4 L188.768,16.96 C188.768,15.5039927 189.151996,14.3600042 189.92,13.528 C190.688004,12.6959958 191.783993,12.28 193.208,12.28 C193.880003,12.28 194.515997,12.3479993 195.116,12.484 C195.716003,12.6200007 196.143999,12.7599993 196.4,12.904 L196.808,13.12 L196.808,16.12 L195.128,16.12 L194.768,14.2 C194.367998,14.1199996 193.824003,14.08 193.136,14.08 C191.823993,14.08 191.168,14.879992 191.168,16.48 L191.168,18.4 L194.336,18.4 L194.264,20.2 L191.168,20.2 L191.168,29.08 L193.496,29.68 L193.496,31 L186.728,31 L186.728,29.68 L188.768,29.08 L188.768,20.2 L186.608,20.2 L186.608,18.64 Z M200.768,14.896 L200.768,18.4 L204.248,18.4 L204.248,20.2 L200.768,20.2 L200.768,27.904 C200.768,28.8800049 201.167996,29.368 201.968,29.368 C202.480003,29.368 203.103996,29.168002 203.84,28.768 L204.488,30.04 C203.399995,30.840004 202.280006,31.24 201.128,31.24 C200.311996,31.24 199.648003,30.9720027 199.136,30.436 C198.623997,29.8999973 198.368,29.0080062 198.368,27.76 L198.368,20.2 L195.968,20.2 L195.968,18.64 L198.368,18.4 L198.368,15.376 L200.768,14.896 Z" id="InventorSoft" fill="#2C2D50"></path>
            </g>
        </g>
    </g>
</svg>